<?xml version="1.0" encoding="UTF-8"?>
<svg id="Layer_1" data-name="Layer 1" xmlns="http://www.w3.org/2000/svg" viewBox="0 0 723.93 637.07">
  <defs>
    <style>
      .cls-1 {
        fill: #022537;
      }
    </style>
  </defs>
  <g>
    <path class="cls-1" d="M265.15,190.48h0c-6.73-6.47-17.77-7.71-25.76-.31l-46.59,43.11c-2.98,2.76-4.69,6.7-4.69,10.84v17.73h-.11v.02h.11s0,6.65,0,6.65l-.1.1v43.77c0,2.44.78,4.51,2.07,6.22.8,1.06,1.85,1.86,2.99,2.52l61.68-37.34c3.08-1.87,6.48-2.77,9.76-2.76,2.29,0,4.51.47,6.6,1.25v-18.94h0v-58.49c0-5.4-2.02-9.93-5.1-13.33l-.88-1.03h0Z"/>
    <path class="cls-1" d="M255.4,167.02c5.24,0,10.3,1.55,14.71,4.27l.99-.96-.23-27.97h-54.65l-93.25,52.9v33.37h56.23c1.01-1.53,2.16-2.97,3.52-4.23h0l53.85-49.84c5.52-5.14,12.31-7.57,18.82-7.55h0Z"/>
    <path class="cls-1" d="M189.19,413.52c6.02-6.69,13.65-11.93,22.51-14.77l59.43-19.03v-14.3h0v-55.9c0-1.34-.23-2.58-.61-3.74h0l-.17-.37c-2.33-6.41-9.89-9.72-16.16-5.93l-45.23,27.38-10.62,6.43h0l-3.97,2.41-.79.48-.16.13-2.14,1.3h-.02c-1.99,1.21-3.24,3.45-3.24,5.86v2.75s-.01,26.07-.01,26.07h.01v37.43c0,1.45.44,2.74,1.16,3.81h0Z"/>
    <path class="cls-1" d="M271.15,393.62v-.32l-56.12,17.97c-8.45,2.71-15.53,8.14-20.47,15.17h0c-.83,1.18-1.52,2.47-2.22,3.74-3.4,6.11-5.4,13.1-5.4,20.5v44.02h84.21v-99.05h0v-2.04h0Z"/>
  </g>
  <g>
    <path class="cls-1" d="M472.09,255.01l1.19.03,10.25-3.29,1.34-1.87v-12.63l-.1-.64c-.36-1.12-1.69-1.71-2.76-1.06l-9.45,5.71-.8.5-.95,1.7v9.69l1.28,1.85h0Z"/>
    <path class="cls-1" d="M503.38,288.29c0,8.03-2.16,13.84-6.45,17.43-4.31,3.57-9.81,5.38-16.53,5.38-2.73,0-9.78-.39-12.61-1.15-2.83-.76-5.47-2.03-7.87-3.82-2.43-1.79-4.38-4.22-5.91-7.33-1.52-3.09-2.29-6.98-2.29-11.64s.88-9.55,2.59-14c1.73-4.44,3.56-8.2,5.44-11.24l-.48-2.12-8.65-4.88c-1.04-.66-1.78-.59-2.2.17-2.73,4.01-5.12,8.98-7.16,14.88-2.05,5.92-3.07,12.08-3.07,18.49,0,5.75.89,10.83,2.68,15.21,1.78,4.4,4.26,8.12,7.47,11.16,3.19,3.04,7.08,5.34,11.65,6.91,4.56,1.59,13.95,2.37,19.62,2.37,11.96,0,21.11-3.15,27.47-9.45,6.34-6.28,9.51-15.03,9.51-26.2v-53.16h-13.22v53Z"/>
    <path class="cls-1" d="M587.74,279h-15.9c-5.88,0-10.31-1.46-13.31-4.4-2.98-2.93-4.47-8.25-4.47-15.94,0-7.17,1.51-12.92,4.56-17.25,3.03-4.33,7.23-6.51,12.58-6.51,5.88,0,10.09,2.01,12.67,6.02,2.58,4.02,3.86,9.62,3.86,16.77v21.32h0ZM593.09,230.58c-5.24-5.59-12.54-8.39-21.88-8.39-4.19,0-8.14.73-11.8,2.2-3.68,1.46-6.9,3.69-9.69,6.67-2.77,2.99-4.96,6.78-6.52,11.39-1.57,4.61-2.37,10.02-2.37,16.21s.69,11.39,2.05,15.62c1.37,4.24,3.36,7.64,5.98,10.18,2.62,2.56,5.8,4.4,9.52,5.53,3.72,1.15,7.9,1.71,12.51,1.71h16.85v4.22c0,3.06-.38,5.56-1.1,7.59-.74,2.01-1.76,3.57-3.07,4.71-1.31,1.14-2.86,1.97-4.64,2.45-1.79.5-3.72.73-5.83.73-25.07,0-14.39,0-39.48-.01h-.33l-4.28,12.72h44.72c4.1,0,7.82-.54,11.18-1.64,3.36-1.07,6.22-2.76,8.57-5.05,2.37-2.28,4.2-5.19,5.52-8.77,1.31-3.59,1.96-7.93,1.96-13.03v-37.94c0-12.47-2.62-21.51-7.87-27.1"/>
    <path class="cls-1" d="M415.34,413.54c-4.63,6.56-11.27,9.84-19.9,9.84-9.34,0-16.23-3.16-20.64-9.49-4.4-6.33-6.62-15.73-6.62-28.18,0-5.3.62-10.19,1.82-14.67,1.22-4.46,2.97-8.26,5.27-11.38,2.29-3.1,5.12-5.55,8.5-7.33,3.37-1.76,7.26-2.65,11.66-2.65,8.9,0,15.61,3.2,20.12,9.57,4.49,6.36,6.73,15.65,6.73,27.84,0,11.07-2.32,19.89-6.95,26.45M396.12,338.38c-6.84,0-12.84,1.32-18,3.97-5.18,2.67-9.49,6.22-12.96,10.68-3.47,4.46-6.06,9.63-7.76,15.49-1.7,5.88-2.56,12.02-2.56,18.42,0,14.79,3.35,26.45,10.05,34.96,6.71,8.53,16.8,12.76,30.29,12.76,6.57,0,12.4-1.29,17.48-3.9,5.08-2.6,9.36-6.1,12.82-10.46,3.45-4.38,6.09-9.52,7.88-15.43,1.81-5.91,2.71-12.17,2.71-18.77,0-14.99-3.33-26.68-9.99-35.1-6.66-8.43-16.65-12.64-29.95-12.64"/>
    <path class="cls-1" d="M488.57,358.39c-5.48,0-10.02,1.07-13.64,3.21-3.6,2.14-6.37,5.24-8.29,9.32v-10.9l-11.98.9v70.42h12.55v-55.21c2.12-1.98,4.72-3.63,7.79-4.93,3.07-1.29,6.3-1.95,9.66-1.95,4.52,0,7.94,1.28,10.25,3.8,2.3,2.54,3.47,6.65,3.47,12.31v45.97h12.55v-48.35c0-7.95-1.97-14.04-5.92-18.27-3.95-4.24-9.42-6.34-16.44-6.34"/>
    <path class="cls-1" d="M545.74,374.79c3.23-3.57,7.05-5.36,11.48-5.36s8.21,1.44,10.82,4.33c2.59,2.89,3.78,7.95,3.6,15.21l-31.73,1.79c.66-7.06,2.62-12.39,5.83-15.98M545.53,416.58c-3.57-3.46-5.38-9.3-5.77-17.16h43.28c.86-6.06,1.02-11.64.51-16.71-.54-5.08-1.79-9.4-3.75-12.98-1.97-3.58-4.69-6.39-8.15-8.43-3.47-2.04-7.74-3.06-12.84-3.06s-9.78,1.01-13.77,3.06c-3.99,2.04-7.34,4.88-10.04,8.51-2.68,3.62-4.73,7.96-6.13,12.98-1.39,5.02-2.08,10.52-2.08,16.48,0,10.35,2.64,18.66,7.92,24.92,5.29,6.26,14.81,9.4,22.07,9.4,5.18,0,33.9-.14,33.9-.14l3.99-11.94-34.87.44s-8.99-.23-14.28-5.36"/>
  </g>
</svg>