<?xml version="1.0" encoding="UTF-8"?>
<svg xmlns="http://www.w3.org/2000/svg" viewBox="115 140 495 350">
  <g fill="#fff">
    <path d="M265.15,194.75h0c-6.73-6.25-17.77-7.45-25.76-.3l-46.59,41.68c-2.98,2.66-4.69,6.47-4.69,10.47v17.14h-.11v.02h.11s0,6.43,0,6.43l-.1.09v42.31c0,2.36.78,4.36,2.07,6.01.8,1.02,1.85,1.8,2.99,2.44l61.68-36.1c3.08-1.81,6.48-2.67,9.76-2.67,2.29,0,4.51.45,6.6,1.21v-18.31h0v-56.55c0-5.22-2.02-9.6-5.1-12.89l-.88-.99h0Z"/>
    <path d="M255.4,172.07c5.24,0,10.3,1.5,14.71,4.13l.99-.92-.23-27.04h-54.65l-93.25,51.14v32.25h56.23c1.01-1.48,2.16-2.87,3.52-4.09h0l53.85-48.18c5.52-4.97,12.31-7.32,18.82-7.3h0Z"/>
    <path d="M189.19,410.36c6.02-6.47,13.65-11.53,22.51-14.28l59.43-18.39v-13.82h0v-54.03c0-1.29-.23-2.49-.61-3.61h0l-.17-.36c-2.33-6.2-9.89-9.4-16.16-5.74l-45.23,26.47-10.62,6.21h0l-3.97,2.33-.79.46-.16.12-2.14,1.26h-.02c-1.99,1.17-3.24,3.34-3.24,5.66v2.66s-.01,25.2-.01,25.2h.01v36.19c0,1.4.44,2.65,1.16,3.68h0Z"/>
    <path d="M271.15,391.12v-.31l-56.12,17.37c-8.45,2.62-15.53,7.87-20.47,14.67h0c-.83,1.15-1.52,2.39-2.22,3.61-3.4,5.91-5.4,12.66-5.4,19.82v42.56h84.21v-95.75h0v-1.97h0Z"/>
    <path d="M472.09,257.13l1.19.03,10.25-3.18,1.34-1.81v-12.2l-.1-.62c-.36-1.09-1.69-1.66-2.76-1.02l-9.45,5.52-.8.48-.95,1.64v9.37l1.28,1.79h0Z"/>
    <path d="M503.38,289.3c0,7.76-2.16,13.38-6.45,16.85-4.31,3.45-9.81,5.2-16.53,5.2-2.73,0-9.78-.38-12.61-1.11-2.83-.74-5.47-1.96-7.87-3.69-2.43-1.73-4.38-4.08-5.91-7.08-1.52-2.98-2.29-6.75-2.29-11.26s.88-9.24,2.59-13.53c1.73-4.29,3.56-7.92,5.44-10.86l-.48-2.05-8.65-4.72c-1.04-.63-1.78-.57-2.2.17-2.73,3.87-5.12,8.68-7.16,14.39-2.05,5.73-3.07,11.68-3.07,17.87,0,5.56.89,10.47,2.68,14.71,1.78,4.25,4.26,7.85,7.47,10.79,3.19,2.94,7.08,5.17,11.65,6.68,4.56,1.54,13.95,2.29,19.62,2.29,11.96,0,21.11-3.05,27.47-9.13,6.34-6.07,9.51-14.53,9.51-25.33v-51.39h-13.22v51.23Z"/>
    <path d="M587.74,280.32h-15.9c-5.88,0-10.31-1.42-13.31-4.25-2.98-2.83-4.47-7.97-4.47-15.41,0-6.93,1.51-12.49,4.56-16.68,3.03-4.19,7.23-6.3,12.58-6.3,5.88,0,10.09,1.94,12.67,5.82,2.58,3.89,3.86,9.3,3.86,16.21v20.61h0ZM593.09,233.51c-5.24-5.41-12.54-8.11-21.88-8.11-4.19,0-8.14.71-11.8,2.12-3.68,1.42-6.9,3.57-9.69,6.45-2.77,2.89-4.96,6.55-6.52,11.01-1.57,4.46-2.37,9.69-2.37,15.67s.69,11.01,2.05,15.1c1.37,4.1,3.36,7.38,5.98,9.84,2.62,2.47,5.8,4.25,9.52,5.35,3.72,1.11,7.9,1.66,12.51,1.66h16.85v4.08c0,2.96-.38,5.38-1.1,7.34-.74,1.94-1.76,3.45-3.07,4.55-1.31,1.1-2.86,1.9-4.64,2.37-1.79.48-3.72.71-5.83.71-25.07,0-14.39,0-39.48-.01h-.33l-4.28,12.29h44.72c4.1,0,7.82-.53,11.18-1.58,3.36-1.04,6.22-2.67,8.57-4.88,2.37-2.2,4.2-5.02,5.52-8.48,1.31-3.47,1.96-7.67,1.96-12.6v-36.67c0-12.06-2.62-20.79-7.87-26.2"/>
    <path d="M415.34,410.38c-4.63,6.34-11.27,9.51-19.9,9.51-9.34,0-16.23-3.06-20.64-9.18-4.4-6.12-6.62-15.2-6.62-27.24,0-5.12.62-9.86,1.82-14.18,1.22-4.31,2.97-7.99,5.27-11,2.29-3,5.12-5.36,8.5-7.08,3.37-1.7,7.26-2.56,11.66-2.56,8.9,0,15.61,3.09,20.12,9.25,4.49,6.15,6.73,15.13,6.73,26.91,0,10.7-2.32,19.23-6.95,25.57M396.12,337.72c-6.84,0-12.84,1.28-18,3.84-5.18,2.58-9.49,6.01-12.96,10.32-3.47,4.31-6.06,9.31-7.76,14.98-1.7,5.68-2.56,11.62-2.56,17.81,0,14.3,3.35,25.57,10.05,33.8,6.71,8.24,16.8,12.34,30.29,12.34,6.57,0,12.4-1.25,17.48-3.77,5.08-2.52,9.36-5.89,12.82-10.11,3.45-4.23,6.09-9.2,7.88-14.92,1.81-5.71,2.71-11.77,2.71-18.14,0-14.5-3.33-25.79-9.99-33.93-6.66-8.15-16.65-12.22-29.95-12.22"/>
    <path d="M488.57,357.06c-5.48,0-10.02,1.04-13.64,3.1-3.6,2.07-6.37,5.06-8.29,9.01v-10.53l-11.98.87v68.08h12.55v-53.37c2.12-1.91,4.72-3.51,7.79-4.76,3.07-1.25,6.3-1.88,9.66-1.88,4.52,0,7.94,1.24,10.25,3.67,2.3,2.46,3.47,6.43,3.47,11.9v44.43h12.55v-46.74c0-7.69-1.97-13.58-5.92-17.66-3.95-4.1-9.42-6.13-16.44-6.13"/>
    <path d="M545.74,372.92c3.23-3.45,7.05-5.18,11.48-5.18s8.21,1.39,10.82,4.19c2.59,2.79,3.78,7.69,3.6,14.71l-31.73,1.73c.66-6.83,2.62-11.98,5.83-15.44M545.53,413.31c-3.57-3.35-5.38-8.99-5.77-16.59h43.28c.86-5.86,1.02-11.26.51-16.15-.54-4.91-1.79-9.09-3.75-12.55-1.97-3.46-4.69-6.18-8.15-8.15-3.47-1.97-7.74-2.96-12.84-2.96s-9.78.98-13.77,2.96c-3.99,1.97-7.34,4.72-10.04,8.23-2.68,3.49-4.73,7.7-6.13,12.55-1.39,4.85-2.08,10.17-2.08,15.93,0,10,2.64,18.04,7.92,24.09,5.29,6.06,14.81,9.09,22.07,9.09,5.18,0,33.9-.13,33.9-.13l3.99-11.54-34.87.42s-8.99-.22-14.28-5.18"/>
  </g>
</svg>
