<?xml version="1.0" encoding="UTF-8"?>
<svg xmlns="http://www.w3.org/2000/svg" viewBox="115 140 165 355">
  <g fill="#fff">
    <path d="M265.15,194.75h0c-6.73-6.25-17.77-7.45-25.76-.3l-46.59,41.68c-2.98,2.66-4.69,6.47-4.69,10.47v17.14h-.11v.02h.11s0,6.43,0,6.43l-.1.09v42.31c0,2.36.78,4.36,2.07,6.01.8,1.02,1.85,1.8,2.99,2.44l61.68-36.1c3.08-1.81,6.48-2.67,9.76-2.67,2.29,0,4.51.45,6.6,1.21v-18.31h0v-56.55c0-5.22-2.02-9.6-5.1-12.89l-.88-.99h0Z"/>
    <path d="M255.4,172.07c5.24,0,10.3,1.5,14.71,4.13l.99-.92-.23-27.04h-54.65l-93.25,51.14v32.25h56.23c1.01-1.48,2.16-2.87,3.52-4.09h0l53.85-48.18c5.52-4.97,12.31-7.32,18.82-7.3h0Z"/>
    <path d="M189.19,410.36c6.02-6.47,13.65-11.53,22.51-14.28l59.43-18.39v-13.82h0v-54.03c0-1.29-.23-2.49-.61-3.61h0l-.17-.36c-2.33-6.2-9.89-9.4-16.16-5.74l-45.23,26.47-10.62,6.21h0l-3.97,2.33-.79.46-.16.12-2.14,1.26h-.02c-1.99,1.17-3.24,3.34-3.24,5.66v2.66s-.01,25.2-.01,25.2h.01v36.19c0,1.4.44,2.65,1.16,3.68h0Z"/>
    <path d="M271.15,391.12v-.31l-56.12,17.37c-8.45,2.62-15.53,7.87-20.47,14.67h0c-.83,1.15-1.52,2.39-2.22,3.61-3.4,5.91-5.4,12.66-5.4,19.82v42.56h84.21v-95.75h0v-1.97h0Z"/>
  </g>
</svg>
