<?xml version="1.0" encoding="UTF-8"?>
<svg id="Layer_1" data-name="Layer 1" xmlns="http://www.w3.org/2000/svg" viewBox="0 0 723.93 637.07">
  <defs>
    <style>
      .cls-1 {
        fill: #441319;
      }

      .cls-2 {
        fill: #e73525;
      }

      .cls-3 {
        fill: #b72025;
      }

      .cls-4 {
        fill: #f78e20;
      }

      .cls-5 {
        fill: #022536;
      }

      .cls-6 {
        fill: #c2203d;
      }

      .cls-7 {
        fill: #f15b3e;
      }

      .cls-8 {
        fill: #5e1042;
      }
    </style>
  </defs>
  <path class="cls-4" d="M278.19,393.03l-66.67,20.65c-2.68.83-5.37.68-7.76-.16-5.25,7.22-8.28,16.06-8.28,25.44v46.21h91.43v-103.96c0,5.43-3.54,10.22-8.72,11.82"/>
  <path class="cls-7" d="M276.02,308.21l-60.49,18.73c-2.98.92-5.96.89-8.69.12l-5.23,3.06c-3.8,2.22-6.13,6.29-6.13,10.68v61.04c0,5.53,3.56,9.99,8.27,11.66,5.37-7.38,13.05-13.08,22.22-15.92l60.94-18.86v-76.92c0-1.42-.26-2.75-.67-3.98-1.44,4.87-5.2,8.84-10.23,10.4"/>
  <path class="cls-2" d="M203.76,413.51c2.4.85,5.08.99,7.76.16l66.67-20.65c5.19-1.6,8.72-6.4,8.72-11.82v-2.48l-60.94,18.87c-9.16,2.84-16.85,8.53-22.22,15.92"/>
  <path class="cls-8" d="M200.63,235.69l51.32-45.92c8.8-7.87,20.96-6.55,28.37.34l6.59-6.14-.28-34.53h-59.73l-93.41,51.24v40.48h61.99v6.07c0-4.4,1.87-8.59,5.15-11.53"/>
  <path class="cls-6" d="M280.32,190.11l-84.84,79.06v42.99c0,7.31,4.96,13.13,11.36,14.9l61.44-35.95c7.03-4.11,15.58-.39,17.96,6.71.42-1.4.67-2.87.67-4.39v-88.03c0-6.33-2.61-11.61-6.59-15.3"/>
  <path class="cls-3" d="M268.28,291.11l-61.44,35.95c2.73.76,5.71.8,8.69-.12l60.49-18.73c5.03-1.56,8.79-5.53,10.23-10.39-2.38-7.1-10.93-10.82-17.96-6.71"/>
  <path class="cls-1" d="M251.95,189.77l-51.32,45.92c-3.28,2.93-5.15,7.13-5.15,11.53v21.95l84.84-79.06c-7.41-6.88-19.57-8.21-28.37-.34"/>
  <path class="cls-5" d="M484.65,256.6c.36.12.77.15,1.17.02l10.08-3.12c.79-.24,1.32-.97,1.32-1.79v-12.01c0-.21-.04-.41-.1-.6-.36-1.08-1.66-1.63-2.72-1.02l-9.29,5.44-.79.46c-.58.34-.92.95-.92,1.62v9.23c0,.84.54,1.51,1.25,1.77"/>
  <path class="cls-5" d="M515.45,288.26c0,7.64-2.12,13.17-6.35,16.57-4.24,3.41-9.66,5.11-16.26,5.11-2.69,0-9.63-.36-12.42-1.09-2.79-.72-5.37-1.93-7.75-3.63-2.38-1.71-4.31-4.03-5.81-6.97-1.49-2.94-2.24-6.64-2.24-11.07,0-4.65.85-9.09,2.55-13.32,1.71-4.23,3.49-7.79,5.34-10.68.52-.83.36-1.5-.46-2.02l-8.52-4.64c-1.04-.62-1.76-.57-2.17.15-2.68,3.82-5.03,8.54-7.05,14.17-2.01,5.63-3.02,11.49-3.02,17.58,0,5.47.87,10.3,2.63,14.48,1.75,4.18,4.2,7.71,7.35,10.61,3.15,2.89,6.97,5.08,11.46,6.58,4.49,1.49,13.74,2.24,19.32,2.24,11.77,0,20.78-2.99,27.02-8.98,6.25-5.99,9.37-14.3,9.37-24.93v-50.58h-13.01v50.42Z"/>
  <path class="cls-5" d="M598.46,279.43h-15.64c-5.78,0-10.15-1.39-13.09-4.18-2.94-2.79-4.42-7.84-4.42-15.18,0-6.82,1.5-12.29,4.49-16.42,3-4.13,7.13-6.19,12.39-6.19,5.78,0,9.93,1.91,12.47,5.73,2.53,3.82,3.8,9.14,3.8,15.95v20.29ZM603.73,233.35c-5.17-5.32-12.34-7.98-21.53-7.98-4.13,0-8.01.7-11.62,2.1-3.62,1.39-6.79,3.51-9.53,6.35-2.74,2.84-4.88,6.45-6.43,10.84-1.55,4.39-2.32,9.52-2.32,15.41s.67,10.84,2.01,14.87c1.34,4.03,3.3,7.26,5.88,9.68,2.58,2.43,5.71,4.18,9.38,5.27,3.66,1.08,7.77,1.62,12.31,1.62h16.57v4.02c0,2.9-.36,5.29-1.09,7.2-.72,1.91-1.73,3.41-3.02,4.49-1.29,1.09-2.81,1.86-4.57,2.32-1.76.47-3.67.7-5.73.7-24.69,0-14.17,0-38.85-.01-.11,0-.23,0-.34,0l-4.21,12.1h44.02c4.03,0,7.69-.52,10.99-1.55,3.3-1.04,6.12-2.63,8.44-4.8,2.32-2.17,4.13-4.96,5.42-8.36,1.29-3.41,1.94-7.54,1.94-12.39v-36.09c0-11.87-2.59-20.47-7.75-25.79"/>
  <path class="cls-5" d="M428.81,407.41c-4.56,6.24-11.09,9.36-19.59,9.36-9.21,0-15.98-3.01-20.31-9.03-4.34-6.02-6.51-14.96-6.51-26.82,0-5.05.6-9.7,1.79-13.94,1.19-4.25,2.92-7.85,5.18-10.82,2.26-2.97,5.05-5.29,8.36-6.97,3.32-1.68,7.15-2.53,11.49-2.53,8.76,0,15.36,3.03,19.78,9.1,4.43,6.06,6.64,14.89,6.64,26.48,0,10.54-2.28,18.92-6.84,25.16M409.89,335.91c-6.72,0-12.63,1.26-17.72,3.79-5.09,2.52-9.34,5.91-12.75,10.16-3.41,4.25-5.95,9.16-7.64,14.74-1.68,5.58-2.52,11.42-2.52,17.53,0,14.07,3.3,25.16,9.89,33.26,6.59,8.1,16.53,12.15,29.81,12.15,6.46,0,12.19-1.24,17.2-3.72,5-2.48,9.21-5.8,12.61-9.96,3.41-4.16,6-9.05,7.77-14.67,1.77-5.62,2.66-11.57,2.66-17.86,0-14.25-3.28-25.38-9.83-33.39-6.55-8.01-16.38-12.01-29.48-12.01"/>
  <path class="cls-5" d="M500.87,354.94c-5.39,0-9.86,1.02-13.41,3.05-3.55,2.03-6.27,4.99-8.16,8.87v-10.36l-11.78.85v67h12.35v-52.52c2.08-1.9,4.63-3.45,7.66-4.69,3.03-1.23,6.2-1.85,9.51-1.85,4.45,0,7.81,1.21,10.08,3.62,2.27,2.41,3.41,6.32,3.41,11.71v43.72h12.35v-45.99c0-7.57-1.94-13.37-5.82-17.39-3.88-4.02-9.27-6.03-16.18-6.03"/>
  <path class="cls-5" d="M557.14,370.55c3.17-3.41,6.93-5.11,11.29-5.11s8.09,1.37,10.65,4.12c2.55,2.74,3.74,7.57,3.55,14.48l-31.23,1.7c.66-6.72,2.58-11.78,5.75-15.19M556.93,410.29c-3.51-3.3-5.3-8.85-5.68-16.32h42.58c.85-5.77,1.02-11.07.5-15.9-.52-4.82-1.75-8.94-3.69-12.35-1.94-3.41-4.61-6.08-8.02-8.02-3.41-1.94-7.62-2.91-12.63-2.91s-9.62.97-13.55,2.91c-3.93,1.94-7.22,4.64-9.87,8.09-2.65,3.45-4.66,7.57-6.03,12.35-1.37,4.78-2.06,10.01-2.06,15.69,0,9.84,2.6,17.74,7.81,23.7,5.2,5.96,14.57,8.94,21.72,8.94,5.11,0,33.37-.14,33.37-.14l3.93-11.36-34.32.42s-8.84-.23-14.05-5.11"/>
</svg>